<mxfile host="app.diagrams.net" agent="Mozilla/5.0 (Macintosh; Intel Mac OS X 10_15_7) AppleWebKit/537.36 (KHTML, like Gecko) Chrome/129.0.0.0 Safari/537.36" version="24.8.4">
  <diagram name="第 1 页" id="2Dzi-kGkPISYCDK14bps">
    <mxGraphModel dx="1228" dy="744" grid="1" gridSize="10" guides="1" tooltips="1" connect="1" arrows="1" fold="1" page="1" pageScale="1" pageWidth="1654" pageHeight="1169" math="0" shadow="0">
      <root>
        <mxCell id="0" />
        <mxCell id="1" parent="0" />
        <mxCell id="YAg6dhcQ8J9fwgAFvM_q-1" value="Application" style="rounded=0;whiteSpace=wrap;html=1;fillColor=#dae8fc;strokeColor=#6c8ebf;shadow=1;fontFamily=Tahoma;" parent="1" vertex="1">
          <mxGeometry x="710" y="30" width="120" height="60" as="geometry" />
        </mxCell>
        <mxCell id="YAg6dhcQ8J9fwgAFvM_q-2" value="" style="rounded=0;whiteSpace=wrap;html=1;fillColor=#dae8fc;strokeColor=#6c8ebf;shadow=1;fontFamily=Tahoma;" parent="1" vertex="1">
          <mxGeometry x="220" y="200" width="490" height="170" as="geometry" />
        </mxCell>
        <mxCell id="YAg6dhcQ8J9fwgAFvM_q-4" value="databend-query-proxy1" style="text;strokeColor=none;align=center;fillColor=none;html=1;verticalAlign=middle;whiteSpace=wrap;rounded=0;" parent="1" vertex="1">
          <mxGeometry x="220" y="200" width="143" height="30" as="geometry" />
        </mxCell>
        <mxCell id="YAg6dhcQ8J9fwgAFvM_q-5" value="databend" style="strokeWidth=2;html=1;shape=mxgraph.flowchart.database;whiteSpace=wrap;" parent="1" vertex="1">
          <mxGeometry x="320" y="870" width="60" height="60" as="geometry" />
        </mxCell>
        <mxCell id="YAg6dhcQ8J9fwgAFvM_q-6" value="mysql" style="strokeWidth=2;html=1;shape=mxgraph.flowchart.database;whiteSpace=wrap;" parent="1" vertex="1">
          <mxGeometry x="841" y="870" width="60" height="60" as="geometry" />
        </mxCell>
        <mxCell id="YAg6dhcQ8J9fwgAFvM_q-7" value="proxy1" style="rounded=0;whiteSpace=wrap;html=1;fillColor=#f8cecc;strokeColor=#b85450;shadow=1;fontFamily=Tahoma;" parent="1" vertex="1">
          <mxGeometry x="300" y="240" width="90" height="30" as="geometry" />
        </mxCell>
        <mxCell id="YAg6dhcQ8J9fwgAFvM_q-9" value="proxy2" style="rounded=0;whiteSpace=wrap;html=1;fillColor=#f8cecc;strokeColor=#b85450;shadow=1;fontFamily=Tahoma;" parent="1" vertex="1">
          <mxGeometry x="440" y="240" width="90" height="30" as="geometry" />
        </mxCell>
        <mxCell id="YAg6dhcQ8J9fwgAFvM_q-10" value="proxy3" style="rounded=0;whiteSpace=wrap;html=1;fillColor=#f8cecc;strokeColor=#b85450;shadow=1;fontFamily=Tahoma;" parent="1" vertex="1">
          <mxGeometry x="580" y="240" width="90" height="30" as="geometry" />
        </mxCell>
        <mxCell id="YAg6dhcQ8J9fwgAFvM_q-11" value="......" style="text;strokeColor=none;align=center;fillColor=none;html=1;verticalAlign=middle;whiteSpace=wrap;rounded=0;" parent="1" vertex="1">
          <mxGeometry x="846" y="210" width="70" height="30" as="geometry" />
        </mxCell>
        <mxCell id="CtCAYliH38d5bZCYv3A7-2" value="" style="rounded=0;whiteSpace=wrap;html=1;fillColor=#dae8fc;strokeColor=#6c8ebf;shadow=1;fontFamily=Tahoma;" vertex="1" parent="1">
          <mxGeometry x="820" y="210" width="490" height="170" as="geometry" />
        </mxCell>
        <mxCell id="CtCAYliH38d5bZCYv3A7-3" value="databend-query-proxy2" style="text;strokeColor=none;align=center;fillColor=none;html=1;verticalAlign=middle;whiteSpace=wrap;rounded=0;" vertex="1" parent="1">
          <mxGeometry x="820" y="210" width="143" height="30" as="geometry" />
        </mxCell>
        <mxCell id="CtCAYliH38d5bZCYv3A7-4" value="proxy1" style="rounded=0;whiteSpace=wrap;html=1;fillColor=#f8cecc;strokeColor=#b85450;shadow=1;fontFamily=Tahoma;" vertex="1" parent="1">
          <mxGeometry x="900" y="250" width="90" height="30" as="geometry" />
        </mxCell>
        <mxCell id="CtCAYliH38d5bZCYv3A7-5" value="proxy2" style="rounded=0;whiteSpace=wrap;html=1;fillColor=#f8cecc;strokeColor=#b85450;shadow=1;fontFamily=Tahoma;" vertex="1" parent="1">
          <mxGeometry x="1040" y="250" width="90" height="30" as="geometry" />
        </mxCell>
        <mxCell id="CtCAYliH38d5bZCYv3A7-6" value="proxy3" style="rounded=0;whiteSpace=wrap;html=1;fillColor=#f8cecc;strokeColor=#b85450;shadow=1;fontFamily=Tahoma;" vertex="1" parent="1">
          <mxGeometry x="1180" y="250" width="90" height="30" as="geometry" />
        </mxCell>
      </root>
    </mxGraphModel>
  </diagram>
</mxfile>
